<svg width="102" height="128" viewBox="0 0 102 128" fill="none" xmlns="http://www.w3.org/2000/svg">
<path d="M87.7731 20.8091C82.227 20.8091 78.1277 23.2287 74.5106 28.552L63.9007 44.0378V0H38.3404V44.0378L27.7305 28.552C23.8723 23.2287 19.7731 20.8091 14.227 20.8091C5.78723 20.8091 0 27.1002 0 34.8431C0 41.3762 3.13475 45.7316 9.64539 50.087L50.8794 76.7032L92.1135 50.087C98.6241 45.7316 101.759 41.6181 101.759 34.8431C102 27.1002 96.2128 20.8091 87.7731 20.8091Z" fill="#0AAD0A"/>
<path d="M50.8795 83.2363C75.4752 83.2363 95.4894 101.626 95.4894 128H6.26953C6.26953 101.626 26.5248 83.2363 50.8795 83.2363Z" fill="#FF7009"/>
<path d="M87.7731 20.8091C82.227 20.8091 78.1277 23.2287 74.5106 28.552L63.9007 44.0378V0H38.3404V44.0378L27.7305 28.552C23.8723 23.2287 19.7731 20.8091 14.227 20.8091C5.78723 20.8091 0 27.1002 0 34.8431C0 41.3762 3.13475 45.7316 9.64539 50.087L50.8794 76.7032L92.1135 50.087C98.6241 45.7316 101.759 41.6181 101.759 34.8431C102 27.1002 96.2128 20.8091 87.7731 20.8091Z" fill="#0AAD0A"/>
</svg>
