<?xml version="1.0" encoding="UTF-8" standalone="no"?>
<svg width="16px" height="16px" viewBox="0 0 16 16" version="1.1" xmlns="http://www.w3.org/2000/svg" xmlns:xlink="http://www.w3.org/1999/xlink" xmlns:sketch="http://www.bohemiancoding.com/sketch/ns">
    <!-- Generator: Sketch 3.3.2 (12043) - http://www.bohemiancoding.com/sketch -->
    <title>Shape</title>
    <desc>Created with Sketch.</desc>
    <defs></defs>
    <g id="Page-1" stroke="none" stroke-width="1" fill="none" fill-rule="evenodd" sketch:type="MSPage">
        <path d="M8,0 C3.582,0 0,3.582 0,8 C0,12.418 3.582,16 8,16 C12.418,16 16,12.418 16,8 C16,3.582 12.418,0 8,0 L8,0 Z M4.474,14.037 L4.474,14.037 C4.484,14.029 4.49,14.019 4.5,14.011 L4.5,14.004 C4.791,13.715 5.727,13.529 6.191,13.33 C6.253,13.3 6.306,13.271 6.348,13.242 C6.733,12.982 6.609,11.562 6.609,11.562 L6.348,11.317 C6.348,11.317 6.282,10.675 6.168,10.442 C5.914,9.92 5.645,9.042 5.645,9.042 C5.645,9.042 5.384,8.838 5.384,8.482 C5.384,8.126 5.645,7.922 5.645,7.922 C5.645,7.922 5.641,7.88 5.634,7.806 C5.581,7.525 5.452,6.788 5.452,6.242 C5.452,5.402 5.772,4.818 6.304,4.458 C6.699,4.158 7.242,4.002 7.919,4.002 C7.947,4.002 7.976,4.002 8.004,4.003 C8.032,4.003 8.06,4.002 8.089,4.002 C8.766,4.002 9.309,4.158 9.704,4.458 C10.236,4.818 10.556,5.402 10.556,6.242 C10.556,6.788 10.428,7.525 10.374,7.806 C10.367,7.879 10.363,7.922 10.363,7.922 C10.363,7.922 10.624,8.126 10.624,8.482 C10.624,8.838 10.363,9.042 10.363,9.042 C10.363,9.042 10.094,9.92 9.84,10.442 C9.726,10.675 9.66,11.317 9.66,11.317 L9.398,11.562 C9.398,11.562 9.274,12.983 9.66,13.242 C9.702,13.27 9.755,13.299 9.817,13.33 C10.165,13.479 10.779,13.622 11.187,13.805 C11.323,13.866 11.436,13.932 11.509,14.004 L11.509,14.011 C11.518,14.018 11.523,14.027 11.532,14.034 L11.532,14.034 C10.494,14.644 9.289,15.001 8,15.001 C6.713,15 5.511,14.645 4.474,14.037 L4.474,14.037 Z M12.374,13.457 L12.374,13.457 C12.325,13.407 12.281,13.355 12.226,13.307 L12.214,13.294 C11.85,12.932 11.274,12.753 10.717,12.58 C10.607,12.546 10.499,12.513 10.402,12.481 C10.387,12.355 10.38,12.187 10.381,12.013 L10.618,11.791 L10.657,11.419 C10.68,11.201 10.727,10.928 10.756,10.845 C10.951,10.448 11.147,9.874 11.251,9.557 C11.46,9.292 11.627,8.921 11.627,8.48 C11.627,8.166 11.542,7.888 11.418,7.658 C11.486,7.25 11.558,6.703 11.558,6.24 C11.558,4.822 10.873,4.047 10.289,3.643 C9.716,3.216 8.976,2.999 8.091,2.999 L7.989,3 L7.92,3 C7.035,3 6.295,3.217 5.722,3.644 C5.138,4.048 4.453,4.823 4.453,6.241 C4.453,6.704 4.526,7.251 4.593,7.659 C4.469,7.889 4.384,8.167 4.384,8.481 C4.384,8.922 4.552,9.293 4.76,9.558 C4.864,9.877 5.064,10.457 5.269,10.879 C5.286,10.936 5.334,11.228 5.353,11.419 L5.391,11.791 L5.628,12.013 C5.629,12.187 5.621,12.355 5.607,12.481 C5.511,12.513 5.403,12.546 5.292,12.581 C4.735,12.754 4.159,12.933 3.795,13.295 L3.78,13.31 C3.725,13.358 3.678,13.41 3.629,13.46 C2.029,12.176 1,10.208 1,8.001 C1,4.141 4.14,1.001 8,1.001 C11.86,1.001 15,4.141 15,8.001 C15,10.205 13.972,12.173 12.374,13.457 L12.374,13.457 Z" id="Shape" fill="#BDBCB9" sketch:type="MSShapeGroup"></path>
    </g>
</svg>