<?xml version="1.0" encoding="utf-8"?>
<!-- Generator: Adobe Illustrator 19.0.0, SVG Export Plug-In . SVG Version: 6.00 Build 0)  -->
<svg version="1.1" id="Layer_1" xmlns:sketch="http://www.bohemiancoding.com/sketch/ns"
	 xmlns="http://www.w3.org/2000/svg" xmlns:xlink="http://www.w3.org/1999/xlink" x="0px" y="0px" width="16px" height="16px"
	 viewBox="-297 389 16 16" style="enable-background:new -297 389 16 16;" xml:space="preserve">
<path d="M-285.491,403.011c0-0.002,0-0.005,0-0.007c-0.036-0.036-0.083-0.071-0.137-0.104c-0.054-0.033-0.117-0.065-0.185-0.095
	c-0.408-0.184-1.022-0.326-1.37-0.475c-0.062-0.03-0.115-0.059-0.157-0.088c-0.385-0.26-0.262-1.68-0.262-1.68l0.262-0.245
	c0,0,0.066-0.642,0.18-0.875c0.254-0.522,0.523-1.4,0.523-1.4s0.261-0.204,0.261-0.56c0-0.356-0.261-0.56-0.261-0.56
	s0.004-0.042,0.011-0.116c0.053-0.281,0.182-1.018,0.182-1.564c0-0.84-0.32-1.424-0.852-1.784c-0.395-0.3-0.938-0.456-1.615-0.456
	c-0.028,0-0.057,0-0.085,0.001c-0.028,0-0.056-0.001-0.085-0.001c-0.677,0-1.22,0.156-1.615,0.456
	c-0.532,0.36-0.852,0.944-0.852,1.784c0,0.546,0.128,1.283,0.182,1.564c0.007,0.073,0.011,0.116,0.011,0.116
	s-0.261,0.204-0.261,0.56c0,0.356,0.261,0.56,0.261,0.56s0.269,0.878,0.523,1.4c0.114,0.233,0.18,0.875,0.18,0.875l0.261,0.245
	c0,0,0.124,1.421-0.261,1.68c-0.042,0.028-0.095,0.057-0.157,0.088c-0.464,0.199-1.401,0.386-1.691,0.674c0,0.002,0,0.005,0,0.007
	c-0.395,0.309-0.581,0.794-0.598,0.842c1.202,0.723,2.601,1.148,4.098,1.148c1.499,0,2.901-0.426,4.104-1.151
	C-284.916,403.795-285.099,403.317-285.491,403.011z"/>
<path d="M-289,389c-4.4,0-8,3.6-8,8c0,2.539,1.203,4.807,3.062,6.275c0.088-0.183,0.229-0.434,0.438-0.68v-0.008l0.048-0.048
	c0.07-0.079,0.148-0.157,0.232-0.231l0.015-0.015c0.364-0.362,0.94-0.541,1.497-0.714c0.111-0.034,0.219-0.067,0.315-0.1
	c0.015-0.126,0.022-0.294,0.021-0.468l-0.237-0.222l-0.038-0.372c-0.02-0.191-0.067-0.483-0.084-0.54
	c-0.206-0.422-0.405-1.003-0.509-1.321c-0.209-0.265-0.376-0.636-0.376-1.077c0-0.314,0.085-0.592,0.209-0.822
	c-0.067-0.408-0.14-0.955-0.14-1.418c0-1.418,0.685-2.193,1.269-2.597c0.573-0.427,1.313-0.644,2.198-0.644l0.068,0.001l0.102-0.001
	c0.885,0,1.625,0.217,2.198,0.644c0.584,0.404,1.269,1.179,1.269,2.597c0,0.463-0.073,1.01-0.14,1.418
	c0.124,0.23,0.209,0.508,0.209,0.822c0,0.441-0.167,0.811-0.376,1.077c-0.103,0.317-0.3,0.891-0.495,1.288
	c-0.029,0.083-0.076,0.356-0.099,0.574l-0.039,0.372l-0.237,0.222c-0.001,0.174,0.007,0.342,0.021,0.468
	c0.097,0.033,0.205,0.065,0.315,0.099c0.557,0.173,1.133,0.352,1.497,0.714l0.012,0.013c0.104,0.091,0.197,0.187,0.279,0.284
	l0.014,0.014l0,0.002c0.201,0.24,0.337,0.485,0.423,0.664c1.857-1.468,3.058-3.734,3.058-6.271C-281,392.6-284.6,389-289,389z"/>
</svg>
