<?xml version="1.0" encoding="UTF-8" standalone="no"?>
<svg width="16px" height="16px" viewBox="0 0 16 16" version="1.1" xmlns="http://www.w3.org/2000/svg" xmlns:xlink="http://www.w3.org/1999/xlink" xmlns:sketch="http://www.bohemiancoding.com/sketch/ns">
    <!-- Generator: Sketch 3.3.2 (12043) - http://www.bohemiancoding.com/sketch -->
    <title>Shape Copy</title>
    <desc>Created with Sketch.</desc>
    <defs></defs>
    <g id="Page-1" stroke="none" stroke-width="1" fill="none" fill-rule="evenodd" sketch:type="MSPage">
        <path d="M3.00947762,13 C1.33663106,13 0,11.6573979 0,10.0012144 L0,2.99878564 C0,1.34226429 1.34738902,0 3.00947762,0 L12.9905224,0 C14.6633689,0 16,1.34260206 16,2.99878564 L16,10.0012144 C16,11.6577357 14.652611,13 12.9905224,13 L10.4315297,13 C10.3757336,13 10.3105874,13.0297454 10.2715025,13.0881248 L8.55724622,15.6486343 C8.24948763,16.1083198 7.75449741,16.1142721 7.44275378,15.6486343 L5.72849751,13.0881248 C5.69591304,13.0394548 5.62332848,13 5.56847033,13 L3.00947762,13 Z" id="Shape-Copy" fill="#000000" sketch:type="MSShapeGroup"></path>
    </g>
</svg>