<?xml version="1.0" encoding="utf-8"?>
<!-- Generator: Adobe Illustrator 18.1.1, SVG Export Plug-In . SVG Version: 6.00 Build 0)  -->
<svg version="1.1" id="Layer_1" xmlns:sketch="http://www.bohemiancoding.com/sketch/ns"
	 xmlns="http://www.w3.org/2000/svg" xmlns:xlink="http://www.w3.org/1999/xlink" x="0px" y="0px" width="16px" height="16px"
	 viewBox="0 0 16 16" enable-background="new 0 0 16 16" xml:space="preserve">
<title>icon-more</title>
<desc>Created with Sketch.</desc>
<g>
	<path d="M2,6C0.9,6,0,6.9,0,8s0.9,2,2,2s2-0.9,2-2S3.1,6,2,6z M2,9C1.4,9,1,8.6,1,8s0.4-1,1-1s1,0.4,1,1S2.6,9,2,9z"/>
	<path d="M8,6C6.9,6,6,6.9,6,8s0.9,2,2,2s2-0.9,2-2S9.1,6,8,6z M8,9C7.4,9,7,8.6,7,8s0.4-1,1-1s1,0.4,1,1S8.6,9,8,9z"/>
	<path d="M14,6c-1.1,0-2,0.9-2,2s0.9,2,2,2s2-0.9,2-2S15.1,6,14,6z M14,9c-0.6,0-1-0.4-1-1s0.4-1,1-1s1,0.4,1,1S14.6,9,14,9z"/>
</g>
</svg>
