<?xml version="1.0" encoding="utf-8"?>
<!-- Generator: Adobe Illustrator 18.1.1, SVG Export Plug-In . SVG Version: 6.00 Build 0)  -->
<svg version="1.1" id="Layer_1" xmlns:sketch="http://www.bohemiancoding.com/sketch/ns"
	 xmlns="http://www.w3.org/2000/svg" xmlns:xlink="http://www.w3.org/1999/xlink" x="0px" y="0px" width="20px" height="16px"
	 viewBox="-529 532 20 16" enable-background="new -529 532 20 16" xml:space="preserve">
<g id="Page-1" sketch:type="MSPage">
	<path id="Fill-1" sketch:type="MSShapeGroup" d="M-522.517,548c-2.281,0-4.404-0.669-6.192-1.815
		c0.316,0.037,0.638,0.056,0.964,0.056c1.892,0,3.634-0.646,5.016-1.729c-1.768-0.033-3.259-1.2-3.773-2.805
		c0.247,0.047,0.5,0.072,0.76,0.072c0.368,0,0.725-0.049,1.064-0.142c-1.848-0.371-3.24-2.004-3.24-3.961c0-0.017,0-0.034,0-0.051
		c0.545,0.303,1.167,0.484,1.83,0.505c-1.084-0.724-1.797-1.961-1.797-3.362c0-0.74,0.199-1.434,0.547-2.031
		c1.992,2.444,4.969,4.052,8.326,4.22c-0.069-0.296-0.105-0.604-0.105-0.921c0-2.231,1.809-4.039,4.039-4.039
		c1.162,0,2.211,0.491,2.948,1.276c0.92-0.181,1.785-0.517,2.565-0.98c-0.302,0.943-0.942,1.735-1.776,2.235
		c0.817-0.098,1.596-0.315,2.32-0.636c-0.542,0.81-1.226,1.521-2.016,2.091c0.008,0.173,0.012,0.347,0.012,0.523
		C-511.025,541.845-515.087,548-522.517,548"/>
</g>
</svg>
