<?xml version="1.0" encoding="UTF-8" standalone="no"?>
<svg width="16px" height="16px" viewBox="0 0 16 16" version="1.1" xmlns="http://www.w3.org/2000/svg" xmlns:xlink="http://www.w3.org/1999/xlink" xmlns:sketch="http://www.bohemiancoding.com/sketch/ns">
    <!-- Generator: Sketch 3.3.2 (12043) - http://www.bohemiancoding.com/sketch -->
    <title>Shape</title>
    <desc>Created with Sketch.</desc>
    <defs></defs>
    <g id="Page-1" stroke="none" stroke-width="1" fill="none" fill-rule="evenodd" sketch:type="MSPage">
        <path d="M7.29289322,8 L0.146446609,0.853553391 C-0.0488155365,0.658291245 -0.0488155365,0.341708755 0.146446609,0.146446609 C0.341708755,-0.0488155365 0.658291245,-0.0488155365 0.853553391,0.146446609 L8,7.29289322 L15.1464466,0.146446609 C15.3417088,-0.0488155365 15.6582912,-0.0488155365 15.8535534,0.146446609 C16.0488155,0.341708755 16.0488155,0.658291245 15.8535534,0.853553391 L8.70710678,8 L15.8535534,15.1464466 C16.0488155,15.3417088 16.0488155,15.6582912 15.8535534,15.8535534 C15.6582912,16.0488155 15.3417088,16.0488155 15.1464466,15.8535534 L8,8.70710678 L0.853553391,15.8535534 C0.658291245,16.0488155 0.341708755,16.0488155 0.146446609,15.8535534 C-0.0488155365,15.6582912 -0.0488155365,15.3417088 0.146446609,15.1464466 L7.29289322,8 Z" id="Shape" fill="#BDBCB9" sketch:type="MSShapeGroup"></path>
    </g>
</svg>