<?xml version="1.0" encoding="UTF-8" standalone="no"?>
<svg width="16px" height="16px" viewBox="0 0 16 16" version="1.1" xmlns="http://www.w3.org/2000/svg" xmlns:xlink="http://www.w3.org/1999/xlink" xmlns:sketch="http://www.bohemiancoding.com/sketch/ns">
    <!-- Generator: Sketch 3.3.2 (12043) - http://www.bohemiancoding.com/sketch -->
    <title>Oval 1</title>
    <desc>Created with Sketch.</desc>
    <defs></defs>
    <g id="Page-1" stroke="none" stroke-width="1" fill="none" fill-rule="evenodd" sketch:type="MSPage">
        <path d="M7.29289322,8 L4.14644661,4.85355339 C3.95118446,4.65829124 3.95118446,4.34170876 4.14644661,4.14644661 C4.34170876,3.95118446 4.65829124,3.95118446 4.85355339,4.14644661 L8,7.29289322 L11.1464466,4.14644661 C11.3417088,3.95118446 11.6582912,3.95118446 11.8535534,4.14644661 C12.0488155,4.34170876 12.0488155,4.65829124 11.8535534,4.85355339 L8.70710678,8 L11.8535534,11.1464466 C12.0488155,11.3417088 12.0488155,11.6582912 11.8535534,11.8535534 C11.6582912,12.0488155 11.3417088,12.0488155 11.1464466,11.8535534 L8,8.70710678 L4.85355339,11.8535534 C4.65829124,12.0488155 4.34170876,12.0488155 4.14644661,11.8535534 C3.95118446,11.6582912 3.95118446,11.3417088 4.14644661,11.1464466 L7.29289322,8 Z M8,16 C12.418278,16 16,12.418278 16,8 C16,3.581722 12.418278,0 8,0 C3.581722,0 0,3.581722 0,8 C0,12.418278 3.581722,16 8,16 Z M8,15 C11.8659932,15 15,11.8659932 15,8 C15,4.13400675 11.8659932,1 8,1 C4.13400675,1 1,4.13400675 1,8 C1,11.8659932 4.13400675,15 8,15 Z" id="Oval-1" fill="#BDBCB9" sketch:type="MSShapeGroup"></path>
    </g>
</svg>